<!DOCTYPE svg PUBLIC "-//W3C//DTD SVG 1.1//EN" "http://www.w3.org/Graphics/SVG/1.1/DTD/svg11.dtd">
<!-- Uploaded to: SVG Repo, www.svgrepo.com, Transformed by: SVG Repo Mixer Tools -->
<svg fill="#000000" height="800px" width="800px" version="1.1" id="Layer_1" xmlns="http://www.w3.org/2000/svg" xmlns:xlink="http://www.w3.org/1999/xlink" viewBox="0 0 511.999 511.999" xml:space="preserve">
<g id="SVGRepo_bgCarrier" stroke-width="0"/>
<g id="SVGRepo_tracerCarrier" stroke-linecap="round" stroke-linejoin="round"/>
<g id="SVGRepo_iconCarrier"> <g> <g> <g> <path d="M255.998,0.001C114.841,0.001,0,114.841,0,255.997c0,141.158,114.841,256.001,255.998,256.001 c141.159,0,256.001-114.842,256.001-256.001C512,114.841,397.158,0.001,255.998,0.001z M255.998,490.662 c-129.393,0-234.663-105.27-234.663-234.665c0-129.393,105.27-234.662,234.663-234.662 c129.396,0,234.666,105.269,234.666,234.662C490.665,385.393,385.394,490.662,255.998,490.662z"/> <path d="M270.398,85.941c5.878,0.465,11.031-3.865,11.527-9.734c0.495-5.871-3.863-11.03-9.733-11.526 c-5.377-0.454-10.825-0.684-16.193-0.684c-105.868,0-191.998,86.131-191.998,192.004c0,5.889,4.776,10.667,10.667,10.667 s10.667-4.778,10.667-10.667c0-94.107,76.56-170.669,170.663-170.669C260.769,85.333,265.615,85.537,270.398,85.941z"/> <path d="M437.331,245.334c-5.891,0-10.667,4.776-10.667,10.667c0,94.103-76.56,170.662-170.665,170.662 c-4.771,0-9.617-0.204-14.403-0.608c-5.867-0.483-11.031,3.863-11.526,9.734c-0.495,5.869,3.864,11.03,9.734,11.526 c5.381,0.452,10.829,0.684,16.195,0.684c105.869,0,191.999-86.129,191.999-191.997 C447.998,250.109,443.222,245.334,437.331,245.334z"/> <path d="M299.315,90.918l0.85,0.229c0.927,0.247,1.856,0.367,2.771,0.367c4.709,0,9.018-3.142,10.296-7.907 c1.528-5.69-1.848-11.54-7.538-13.065L305,70.355c-5.678-1.569-11.554,1.76-13.124,7.441 C290.307,83.472,293.637,89.347,299.315,90.918z"/> <path d="M212.605,421.057l-0.123-0.033c-0.265-0.07-0.533-0.144-0.797-0.21c-5.707-1.438-11.512,2.015-12.958,7.725 c-1.446,5.711,2.013,11.513,7.724,12.958l0.624,0.166c0.927,0.247,1.856,0.367,2.771,0.367c4.709,0,9.018-3.142,10.296-7.907 C221.67,428.433,218.295,422.583,212.605,421.057z"/> <path d="M231.088,316.533c0.688,2.125,1.603,4.18,2.732,6.13c5.65,9.755,16.17,15.816,27.455,15.816 c5.556-0.002,11.044-1.48,15.856-4.265l43.949-25.377c0.27-0.156,0.532-0.325,0.785-0.502l42.768-24.686 c4.98-2.79,9.12-6.886,11.975-11.853c4.214-7.332,5.32-15.866,3.114-24.031c-2.205-8.165-7.458-14.982-14.772-19.184 l-42.53-24.554c-0.459-0.298-0.909-0.575-1.34-0.819l-42.423-24.5c-5.177-3.397-11.185-5.188-17.403-5.188 c-14.096,0-26.073,9.229-30.209,21.964l-29.049-16.777c-5.177-3.397-11.185-5.188-17.403-5.188 c-17.508,0-31.753,14.243-31.753,31.753v101.501c0,0.413,0.025,0.818,0.07,1.218c0.196,5.146,1.655,10.195,4.248,14.67 c5.649,9.755,16.17,15.816,27.455,15.816c5.556-0.002,11.043-1.48,15.856-4.265L231.088,316.533z M184.612,317.143 c-3.698,0-7.144-1.983-8.995-5.178c-0.928-1.602-1.398-3.344-1.396-5.179c0-0.337-0.016-0.671-0.047-1.002V205.272 c0-5.744,4.673-10.418,10.418-10.418c2.089,0,4.099,0.61,5.814,1.767c0.205,0.14,0.416,0.271,0.63,0.396l42.778,24.702 c0.163,0.094,0.319,0.192,0.475,0.293c3.275,2.164,7.475,2.354,10.933,0.496c3.457-1.86,5.615-5.469,5.615-9.395v-7.843 c0-5.744,4.673-10.418,10.418-10.418c2.089,0,4.099,0.61,5.814,1.767c0.205,0.14,0.416,0.271,0.63,0.396l42.778,24.702 c0.158,0.092,0.306,0.188,0.459,0.288c0.182,0.121,0.369,0.236,0.558,0.346l42.81,24.714c2.392,1.375,4.105,3.598,4.824,6.261 c0.72,2.665,0.359,5.447-1.013,7.836c-0.94,1.633-2.3,2.979-3.934,3.888c-0.048,0.027-0.098,0.054-0.146,0.081l-43.642,25.189 c-0.272,0.158-0.534,0.325-0.789,0.505l-43.151,24.917c-1.603,0.929-3.345,1.401-5.177,1.401c-3.698,0-7.144-1.983-8.995-5.178 c-0.931-1.607-1.402-3.351-1.401-5.179c0-0.321-0.015-0.642-0.043-0.958v-6.899c0-3.806-2.028-7.325-5.322-9.232 c-3.294-1.908-7.356-1.917-10.657-0.018l-1.102,0.634c-0.277,0.158-0.544,0.328-0.8,0.507l-43.167,24.924 C188.186,316.673,186.444,317.143,184.612,317.143z"/> </g> </g> </g> </g>
</svg>