<?xml version="1.0" encoding="iso-8859-1"?>
<!-- Uploaded to: SVG Repo, www.svgrepo.com, Generator: SVG Repo Mixer Tools -->
<svg fill="#000000" height="800px" width="800px" version="1.1" id="Layer_1" xmlns="http://www.w3.org/2000/svg" xmlns:xlink="http://www.w3.org/1999/xlink" 
	 viewBox="0 0 512 512" xml:space="preserve">
<g>
	<g>
		<path d="M256,0C114.842,0,0,114.842,0,256s114.842,256,256,256s256-114.842,256-256S397.158,0,256,0z M256,482.743
			C130.974,482.743,29.257,381.026,29.257,256S130.974,29.257,256,29.257S482.743,130.974,482.743,256S381.026,482.743,256,482.743z
			"/>
	</g>
</g>
<g>
	<g>
		<path d="M245.757,64.774c-8.079,0-14.629,6.549-14.629,14.629v0.012c0,8.079,6.549,14.623,14.629,14.623
			s14.629-6.555,14.629-14.634S253.836,64.774,245.757,64.774z"/>
	</g>
</g>
<g>
	<g>
		<path d="M211.447,82.679c-2.409-7.711-10.616-12.009-18.327-9.598c-36.421,11.387-69.114,34.578-92.058,65.302
			c-23.741,31.791-36.289,69.623-36.289,109.407c0,8.079,6.549,14.629,14.629,14.629c8.079,0,14.629-6.549,14.629-14.629
			c-0.001-67.634,43.328-126.622,107.818-146.785C209.56,98.595,213.857,90.39,211.447,82.679z"/>
	</g>
</g>
<g>
	<g>
		<path d="M417.514,205.578c-2.566-4.694-7.488-7.614-12.837-7.614h-17.07c-22.658-50.259-73.253-83.374-128.971-83.374
			c-77.973,0-141.41,63.437-141.41,141.41s63.437,141.41,141.41,141.41c20.407,0,40.109-4.261,58.561-12.665
			c4.364-1.988,7.477-5.989,8.331-10.708c0.853-4.719-0.66-9.557-4.051-12.949l-43.464-43.464c-3.19-3.19-7.676-4.728-12.155-4.172
			c-2.399,0.3-4.829,0.451-7.222,0.451c-31.927,0-57.903-25.974-57.903-57.903c0-31.928,25.974-57.903,57.903-57.903
			c4.705,0,9.31,0.565,13.748,1.641c-2.449,1.32-4.529,3.309-5.911,5.84c-2.564,4.694-2.364,10.414,0.525,14.915l62.683,97.678
			c2.69,4.193,7.33,6.728,12.311,6.728s9.621-2.535,12.311-6.728l62.683-97.678C419.877,215.991,420.078,210.273,417.514,205.578z
			 M258.635,168.84c-48.059,0-87.158,39.099-87.158,87.16s39.099,87.16,87.16,87.16c1.153,0,2.308-0.023,3.467-0.07l22.139,22.139
			c-8.324,1.944-16.883,2.924-25.606,2.924c-61.841,0-112.153-50.312-112.153-112.153s50.312-112.153,112.153-112.153
			c39.532,0,75.821,21.013,95.899,53.974h-31.039C306.957,179.314,283.709,168.84,258.635,168.84z M341.993,283.184l-35.915-55.963
			h71.829L341.993,283.184z"/>
	</g>
</g>
</svg>